%TF.GenerationSoftware,KiCad,Pcbnew,8.0.5*%
%TF.CreationDate,2024-11-27T14:30:06+01:00*%
%TF.ProjectId,2nd PCB,326e6420-5043-4422-9e6b-696361645f70,1*%
%TF.SameCoordinates,Original*%
%TF.FileFunction,Copper,L2,Bot*%
%TF.FilePolarity,Positive*%
%FSLAX46Y46*%
G04 Gerber Fmt 4.6, Leading zero omitted, Abs format (unit mm)*
G04 Created by KiCad (PCBNEW 8.0.5) date 2024-11-27 14:30:06*
%MOMM*%
%LPD*%
G01*
G04 APERTURE LIST*
%TA.AperFunction,ComponentPad*%
%ADD10R,3.000000X3.000000*%
%TD*%
%TA.AperFunction,ComponentPad*%
%ADD11C,3.000000*%
%TD*%
%TA.AperFunction,ComponentPad*%
%ADD12R,1.600000X1.600000*%
%TD*%
%TA.AperFunction,ComponentPad*%
%ADD13C,1.600000*%
%TD*%
%TA.AperFunction,ComponentPad*%
%ADD14R,2.200000X2.200000*%
%TD*%
%TA.AperFunction,ComponentPad*%
%ADD15O,2.200000X2.200000*%
%TD*%
%TA.AperFunction,ComponentPad*%
%ADD16R,1.700000X1.700000*%
%TD*%
%TA.AperFunction,ComponentPad*%
%ADD17R,2.000000X1.905000*%
%TD*%
%TA.AperFunction,ComponentPad*%
%ADD18O,2.000000X1.905000*%
%TD*%
%TA.AperFunction,ComponentPad*%
%ADD19O,1.600000X1.600000*%
%TD*%
%TA.AperFunction,ComponentPad*%
%ADD20R,1.905000X2.000000*%
%TD*%
%TA.AperFunction,ComponentPad*%
%ADD21O,1.905000X2.000000*%
%TD*%
G04 APERTURE END LIST*
D10*
%TO.P,J1,1,Pin_1*%
%TO.N,GND*%
X105210000Y-91250000D03*
D11*
%TO.P,J1,2,Pin_2*%
%TO.N,Net-(J1-Pin_2)*%
X110290000Y-91250000D03*
%TD*%
D12*
%TO.P,C4,1*%
%TO.N,Net-(D1-K)*%
X135500000Y-96000000D03*
D13*
%TO.P,C4,2*%
%TO.N,GND*%
X135500000Y-93500000D03*
%TD*%
D14*
%TO.P,D1,1,K*%
%TO.N,Net-(D1-K)*%
X126000000Y-103000000D03*
D15*
%TO.P,D1,2,A*%
%TO.N,Net-(D1-A)*%
X115840000Y-103000000D03*
%TD*%
D16*
%TO.P,J3,1,Pin_1*%
%TO.N,Net-(J3-Pin_1)*%
X104000000Y-98750000D03*
%TD*%
D10*
%TO.P,J6,1,Pin_1*%
%TO.N,GND*%
X136500000Y-83170000D03*
D11*
%TO.P,J6,2,Pin_2*%
%TO.N,+5V*%
X136500000Y-88250000D03*
%TD*%
D13*
%TO.P,C3,1*%
%TO.N,GND*%
X129000000Y-93250000D03*
%TO.P,C3,2*%
%TO.N,Net-(U1-FILTER)*%
X126500000Y-93250000D03*
%TD*%
D17*
%TO.P,U2,1,IN*%
%TO.N,Net-(D1-K)*%
X141805000Y-96460000D03*
D18*
%TO.P,U2,2,GND*%
%TO.N,GND*%
X141805000Y-99000000D03*
%TO.P,U2,3,OUT*%
%TO.N,+5V*%
X141805000Y-101540000D03*
%TD*%
D13*
%TO.P,R1,1*%
%TO.N,Net-(J3-Pin_1)*%
X107840000Y-98750000D03*
D19*
%TO.P,R1,2*%
%TO.N,GND*%
X118000000Y-98750000D03*
%TD*%
D10*
%TO.P,J5,1,Pin_1*%
%TO.N,Net-(D1-K)*%
X132210000Y-111250000D03*
D11*
%TO.P,J5,2,Pin_2*%
%TO.N,GND*%
X137290000Y-111250000D03*
%TD*%
D12*
%TO.P,C5,1*%
%TO.N,+5V*%
X136750000Y-101750000D03*
D13*
%TO.P,C5,2*%
%TO.N,GND*%
X134250000Y-101750000D03*
%TD*%
D12*
%TO.P,C2,1*%
%TO.N,+5V*%
X127000000Y-84000000D03*
D13*
%TO.P,C2,2*%
%TO.N,GND*%
X127000000Y-81500000D03*
%TD*%
D16*
%TO.P,J2,1,Pin_1*%
%TO.N,Net-(J2-Pin_1)*%
X127750000Y-89250000D03*
%TD*%
D10*
%TO.P,J4,1,Pin_1*%
%TO.N,Net-(D1-K)*%
X123790000Y-111250000D03*
D11*
%TO.P,J4,2,Pin_2*%
%TO.N,Net-(D1-A)*%
X118710000Y-111250000D03*
%TD*%
D20*
%TO.P,Q1,1,D*%
%TO.N,Net-(D1-A)*%
X110500000Y-104250000D03*
D21*
%TO.P,Q1,2,G*%
%TO.N,Net-(J3-Pin_1)*%
X107960000Y-104250000D03*
%TO.P,Q1,3,S*%
%TO.N,GND*%
X105420000Y-104250000D03*
%TD*%
D12*
%TO.P,C1,1*%
%TO.N,Net-(J1-Pin_2)*%
X113750000Y-83750000D03*
D13*
%TO.P,C1,2*%
%TO.N,GND*%
X113750000Y-81250000D03*
%TD*%
%TA.AperFunction,Conductor*%
%TO.N,GND*%
G36*
X149692539Y-78270185D02*
G01*
X149738294Y-78322989D01*
X149749500Y-78374500D01*
X149749500Y-117125500D01*
X149729815Y-117192539D01*
X149677011Y-117238294D01*
X149625500Y-117249500D01*
X100874500Y-117249500D01*
X100807461Y-117229815D01*
X100761706Y-117177011D01*
X100750500Y-117125500D01*
X100750500Y-113128711D01*
X102899500Y-113128711D01*
X102899500Y-113371288D01*
X102931161Y-113611785D01*
X102993947Y-113846104D01*
X103086773Y-114070205D01*
X103086776Y-114070212D01*
X103208064Y-114280289D01*
X103208066Y-114280292D01*
X103208067Y-114280293D01*
X103355733Y-114472736D01*
X103355739Y-114472743D01*
X103527256Y-114644260D01*
X103527262Y-114644265D01*
X103719711Y-114791936D01*
X103929788Y-114913224D01*
X104153900Y-115006054D01*
X104388211Y-115068838D01*
X104568586Y-115092584D01*
X104628711Y-115100500D01*
X104628712Y-115100500D01*
X104871289Y-115100500D01*
X104919388Y-115094167D01*
X105111789Y-115068838D01*
X105346100Y-115006054D01*
X105570212Y-114913224D01*
X105780289Y-114791936D01*
X105972738Y-114644265D01*
X106144265Y-114472738D01*
X106291936Y-114280289D01*
X106413224Y-114070212D01*
X106506054Y-113846100D01*
X106568838Y-113611789D01*
X106600500Y-113371288D01*
X106600500Y-113128712D01*
X106597713Y-113107546D01*
X106575291Y-112937226D01*
X106568838Y-112888211D01*
X106506054Y-112653900D01*
X106413224Y-112429788D01*
X106291936Y-112219711D01*
X106144265Y-112027262D01*
X106144260Y-112027256D01*
X105972743Y-111855739D01*
X105972736Y-111855733D01*
X105780293Y-111708067D01*
X105780292Y-111708066D01*
X105780289Y-111708064D01*
X105570212Y-111586776D01*
X105570205Y-111586773D01*
X105346104Y-111493947D01*
X105111785Y-111431161D01*
X104871289Y-111399500D01*
X104871288Y-111399500D01*
X104628712Y-111399500D01*
X104628711Y-111399500D01*
X104388214Y-111431161D01*
X104153895Y-111493947D01*
X103929794Y-111586773D01*
X103929785Y-111586777D01*
X103719706Y-111708067D01*
X103527263Y-111855733D01*
X103527256Y-111855739D01*
X103355739Y-112027256D01*
X103355733Y-112027263D01*
X103208067Y-112219706D01*
X103086777Y-112429785D01*
X103086773Y-112429794D01*
X102993947Y-112653895D01*
X102931161Y-112888214D01*
X102899500Y-113128711D01*
X100750500Y-113128711D01*
X100750500Y-111249998D01*
X116704390Y-111249998D01*
X116704390Y-111250001D01*
X116724804Y-111535433D01*
X116785628Y-111815037D01*
X116785630Y-111815043D01*
X116785631Y-111815046D01*
X116864784Y-112027262D01*
X116885635Y-112083166D01*
X117022770Y-112334309D01*
X117022775Y-112334317D01*
X117194254Y-112563387D01*
X117194270Y-112563405D01*
X117396594Y-112765729D01*
X117396612Y-112765745D01*
X117625682Y-112937224D01*
X117625690Y-112937229D01*
X117876833Y-113074364D01*
X117876832Y-113074364D01*
X117876836Y-113074365D01*
X117876839Y-113074367D01*
X118144954Y-113174369D01*
X118144960Y-113174370D01*
X118144962Y-113174371D01*
X118424566Y-113235195D01*
X118424568Y-113235195D01*
X118424572Y-113235196D01*
X118678220Y-113253337D01*
X118709999Y-113255610D01*
X118710000Y-113255610D01*
X118710001Y-113255610D01*
X118738595Y-113253564D01*
X118995428Y-113235196D01*
X119185742Y-113193796D01*
X119275037Y-113174371D01*
X119275037Y-113174370D01*
X119275046Y-113174369D01*
X119543161Y-113074367D01*
X119794315Y-112937226D01*
X120023395Y-112765739D01*
X120225739Y-112563395D01*
X120397226Y-112334315D01*
X120534367Y-112083161D01*
X120634369Y-111815046D01*
X120657641Y-111708067D01*
X120695195Y-111535433D01*
X120695195Y-111535432D01*
X120695196Y-111535428D01*
X120715610Y-111250000D01*
X120695196Y-110964572D01*
X120634369Y-110684954D01*
X120534367Y-110416839D01*
X120397372Y-110165953D01*
X120397229Y-110165690D01*
X120397224Y-110165682D01*
X120225745Y-109936612D01*
X120225729Y-109936594D01*
X120023405Y-109734270D01*
X120023387Y-109734254D01*
X119980481Y-109702135D01*
X121789500Y-109702135D01*
X121789500Y-112797870D01*
X121789501Y-112797876D01*
X121795908Y-112857483D01*
X121846202Y-112992328D01*
X121846206Y-112992335D01*
X121932452Y-113107544D01*
X121932455Y-113107547D01*
X122047664Y-113193793D01*
X122047671Y-113193797D01*
X122182517Y-113244091D01*
X122182516Y-113244091D01*
X122189444Y-113244835D01*
X122242127Y-113250500D01*
X125337872Y-113250499D01*
X125397483Y-113244091D01*
X125532331Y-113193796D01*
X125647546Y-113107546D01*
X125733796Y-112992331D01*
X125784091Y-112857483D01*
X125790500Y-112797873D01*
X125790499Y-109702135D01*
X130209500Y-109702135D01*
X130209500Y-112797870D01*
X130209501Y-112797876D01*
X130215908Y-112857483D01*
X130266202Y-112992328D01*
X130266206Y-112992335D01*
X130352452Y-113107544D01*
X130352455Y-113107547D01*
X130467664Y-113193793D01*
X130467671Y-113193797D01*
X130602517Y-113244091D01*
X130602516Y-113244091D01*
X130609444Y-113244835D01*
X130662127Y-113250500D01*
X133757872Y-113250499D01*
X133817483Y-113244091D01*
X133952331Y-113193796D01*
X134067546Y-113107546D01*
X134153796Y-112992331D01*
X134204091Y-112857483D01*
X134210500Y-112797873D01*
X134210499Y-111249998D01*
X135284891Y-111249998D01*
X135284891Y-111250001D01*
X135305300Y-111535362D01*
X135366109Y-111814895D01*
X135466091Y-112082958D01*
X135603191Y-112334038D01*
X135603196Y-112334046D01*
X135709882Y-112476561D01*
X135709883Y-112476562D01*
X136604767Y-111581677D01*
X136616497Y-111609995D01*
X136699670Y-111734472D01*
X136805528Y-111840330D01*
X136930005Y-111923503D01*
X136958320Y-111935231D01*
X136063436Y-112830115D01*
X136205960Y-112936807D01*
X136205961Y-112936808D01*
X136457042Y-113073908D01*
X136457041Y-113073908D01*
X136725104Y-113173890D01*
X137004637Y-113234699D01*
X137289999Y-113255109D01*
X137290001Y-113255109D01*
X137575362Y-113234699D01*
X137854895Y-113173890D01*
X137976025Y-113128711D01*
X143899500Y-113128711D01*
X143899500Y-113371288D01*
X143931161Y-113611785D01*
X143993947Y-113846104D01*
X144086773Y-114070205D01*
X144086776Y-114070212D01*
X144208064Y-114280289D01*
X144208066Y-114280292D01*
X144208067Y-114280293D01*
X144355733Y-114472736D01*
X144355739Y-114472743D01*
X144527256Y-114644260D01*
X144527262Y-114644265D01*
X144719711Y-114791936D01*
X144929788Y-114913224D01*
X145153900Y-115006054D01*
X145388211Y-115068838D01*
X145568586Y-115092584D01*
X145628711Y-115100500D01*
X145628712Y-115100500D01*
X145871289Y-115100500D01*
X145919388Y-115094167D01*
X146111789Y-115068838D01*
X146346100Y-115006054D01*
X146570212Y-114913224D01*
X146780289Y-114791936D01*
X146972738Y-114644265D01*
X147144265Y-114472738D01*
X147291936Y-114280289D01*
X147413224Y-114070212D01*
X147506054Y-113846100D01*
X147568838Y-113611789D01*
X147600500Y-113371288D01*
X147600500Y-113128712D01*
X147597713Y-113107546D01*
X147575291Y-112937226D01*
X147568838Y-112888211D01*
X147506054Y-112653900D01*
X147413224Y-112429788D01*
X147291936Y-112219711D01*
X147144265Y-112027262D01*
X147144260Y-112027256D01*
X146972743Y-111855739D01*
X146972736Y-111855733D01*
X146780293Y-111708067D01*
X146780292Y-111708066D01*
X146780289Y-111708064D01*
X146570212Y-111586776D01*
X146570205Y-111586773D01*
X146346104Y-111493947D01*
X146111785Y-111431161D01*
X145871289Y-111399500D01*
X145871288Y-111399500D01*
X145628712Y-111399500D01*
X145628711Y-111399500D01*
X145388214Y-111431161D01*
X145153895Y-111493947D01*
X144929794Y-111586773D01*
X144929785Y-111586777D01*
X144719706Y-111708067D01*
X144527263Y-111855733D01*
X144527256Y-111855739D01*
X144355739Y-112027256D01*
X144355733Y-112027263D01*
X144208067Y-112219706D01*
X144086777Y-112429785D01*
X144086773Y-112429794D01*
X143993947Y-112653895D01*
X143931161Y-112888214D01*
X143899500Y-113128711D01*
X137976025Y-113128711D01*
X138122958Y-113073908D01*
X138374047Y-112936803D01*
X138516561Y-112830116D01*
X138516562Y-112830115D01*
X137621679Y-111935231D01*
X137649995Y-111923503D01*
X137774472Y-111840330D01*
X137880330Y-111734472D01*
X137963503Y-111609995D01*
X137975231Y-111581678D01*
X138870115Y-112476562D01*
X138870116Y-112476561D01*
X138976803Y-112334047D01*
X139113908Y-112082958D01*
X139213890Y-111814895D01*
X139274699Y-111535362D01*
X139295109Y-111250001D01*
X139295109Y-111249998D01*
X139274699Y-110964637D01*
X139213890Y-110685104D01*
X139113908Y-110417041D01*
X138976808Y-110165961D01*
X138976807Y-110165960D01*
X138870115Y-110023436D01*
X137975231Y-110918320D01*
X137963503Y-110890005D01*
X137880330Y-110765528D01*
X137774472Y-110659670D01*
X137649995Y-110576497D01*
X137621678Y-110564767D01*
X138516562Y-109669883D01*
X138516561Y-109669882D01*
X138374046Y-109563196D01*
X138374038Y-109563191D01*
X138122957Y-109426091D01*
X138122958Y-109426091D01*
X137854895Y-109326109D01*
X137575362Y-109265300D01*
X137290001Y-109244891D01*
X137289999Y-109244891D01*
X137004637Y-109265300D01*
X136725104Y-109326109D01*
X136457041Y-109426091D01*
X136205961Y-109563191D01*
X136205953Y-109563196D01*
X136063437Y-109669882D01*
X136063436Y-109669883D01*
X136958321Y-110564767D01*
X136930005Y-110576497D01*
X136805528Y-110659670D01*
X136699670Y-110765528D01*
X136616497Y-110890005D01*
X136604768Y-110918321D01*
X135709883Y-110023436D01*
X135709882Y-110023437D01*
X135603196Y-110165953D01*
X135603191Y-110165961D01*
X135466091Y-110417041D01*
X135366109Y-110685104D01*
X135305300Y-110964637D01*
X135284891Y-111249998D01*
X134210499Y-111249998D01*
X134210499Y-109702128D01*
X134204091Y-109642517D01*
X134174506Y-109563196D01*
X134153797Y-109507671D01*
X134153793Y-109507664D01*
X134067547Y-109392455D01*
X134067544Y-109392452D01*
X133952335Y-109306206D01*
X133952328Y-109306202D01*
X133817482Y-109255908D01*
X133817483Y-109255908D01*
X133757883Y-109249501D01*
X133757881Y-109249500D01*
X133757873Y-109249500D01*
X133757864Y-109249500D01*
X130662129Y-109249500D01*
X130662123Y-109249501D01*
X130602516Y-109255908D01*
X130467671Y-109306202D01*
X130467664Y-109306206D01*
X130352455Y-109392452D01*
X130352452Y-109392455D01*
X130266206Y-109507664D01*
X130266202Y-109507671D01*
X130215908Y-109642517D01*
X130209501Y-109702116D01*
X130209501Y-109702123D01*
X130209500Y-109702135D01*
X125790499Y-109702135D01*
X125790499Y-109702128D01*
X125784091Y-109642517D01*
X125754506Y-109563196D01*
X125733797Y-109507671D01*
X125733793Y-109507664D01*
X125647547Y-109392455D01*
X125647544Y-109392452D01*
X125532335Y-109306206D01*
X125532328Y-109306202D01*
X125397482Y-109255908D01*
X125397483Y-109255908D01*
X125337883Y-109249501D01*
X125337881Y-109249500D01*
X125337873Y-109249500D01*
X125337864Y-109249500D01*
X122242129Y-109249500D01*
X122242123Y-109249501D01*
X122182516Y-109255908D01*
X122047671Y-109306202D01*
X122047664Y-109306206D01*
X121932455Y-109392452D01*
X121932452Y-109392455D01*
X121846206Y-109507664D01*
X121846202Y-109507671D01*
X121795908Y-109642517D01*
X121789501Y-109702116D01*
X121789501Y-109702123D01*
X121789500Y-109702135D01*
X119980481Y-109702135D01*
X119794317Y-109562775D01*
X119794309Y-109562770D01*
X119543166Y-109425635D01*
X119543167Y-109425635D01*
X119435915Y-109385632D01*
X119275046Y-109325631D01*
X119275043Y-109325630D01*
X119275037Y-109325628D01*
X118995433Y-109264804D01*
X118710001Y-109244390D01*
X118709999Y-109244390D01*
X118424566Y-109264804D01*
X118144962Y-109325628D01*
X117876833Y-109425635D01*
X117625690Y-109562770D01*
X117625682Y-109562775D01*
X117396612Y-109734254D01*
X117396594Y-109734270D01*
X117194270Y-109936594D01*
X117194254Y-109936612D01*
X117022775Y-110165682D01*
X117022770Y-110165690D01*
X116885635Y-110416833D01*
X116785628Y-110684962D01*
X116724804Y-110964566D01*
X116704390Y-111249998D01*
X100750500Y-111249998D01*
X100750500Y-104000000D01*
X103981468Y-104000000D01*
X104929252Y-104000000D01*
X104907482Y-104037708D01*
X104870000Y-104177591D01*
X104870000Y-104322409D01*
X104907482Y-104462292D01*
X104929252Y-104500000D01*
X103981468Y-104500000D01*
X104003265Y-104637628D01*
X104073917Y-104855070D01*
X104177711Y-105058776D01*
X104312097Y-105243742D01*
X104473757Y-105405402D01*
X104658723Y-105539788D01*
X104862429Y-105643582D01*
X105079871Y-105714234D01*
X105170000Y-105728509D01*
X105170000Y-104740747D01*
X105207708Y-104762518D01*
X105347591Y-104800000D01*
X105492409Y-104800000D01*
X105632292Y-104762518D01*
X105670000Y-104740747D01*
X105670000Y-105728508D01*
X105760128Y-105714234D01*
X105977570Y-105643582D01*
X106181276Y-105539788D01*
X106366242Y-105405402D01*
X106527905Y-105243739D01*
X106589371Y-105159137D01*
X106644701Y-105116470D01*
X106714314Y-105110491D01*
X106776109Y-105143096D01*
X106790007Y-105159134D01*
X106851714Y-105244066D01*
X107013434Y-105405786D01*
X107198462Y-105540217D01*
X107330599Y-105607544D01*
X107402244Y-105644049D01*
X107619751Y-105714721D01*
X107619752Y-105714721D01*
X107619755Y-105714722D01*
X107845646Y-105750500D01*
X107845647Y-105750500D01*
X108074353Y-105750500D01*
X108074354Y-105750500D01*
X108300245Y-105714722D01*
X108300248Y-105714721D01*
X108300249Y-105714721D01*
X108517755Y-105644049D01*
X108517755Y-105644048D01*
X108517758Y-105644048D01*
X108721538Y-105540217D01*
X108904245Y-105407472D01*
X108970046Y-105383994D01*
X109038100Y-105399819D01*
X109086795Y-105449924D01*
X109093308Y-105464459D01*
X109103702Y-105492328D01*
X109103706Y-105492335D01*
X109189952Y-105607544D01*
X109189955Y-105607547D01*
X109305164Y-105693793D01*
X109305171Y-105693797D01*
X109440017Y-105744091D01*
X109440016Y-105744091D01*
X109446944Y-105744835D01*
X109499627Y-105750500D01*
X111500372Y-105750499D01*
X111559983Y-105744091D01*
X111694831Y-105693796D01*
X111810046Y-105607546D01*
X111896296Y-105492331D01*
X111946591Y-105357483D01*
X111953000Y-105297873D01*
X111952999Y-103202128D01*
X111946591Y-103142517D01*
X111936660Y-103115891D01*
X111896297Y-103007671D01*
X111896293Y-103007664D01*
X111890556Y-103000000D01*
X114234551Y-103000000D01*
X114254317Y-103251151D01*
X114313126Y-103496110D01*
X114409533Y-103728859D01*
X114541160Y-103943653D01*
X114541161Y-103943656D01*
X114541164Y-103943659D01*
X114704776Y-104135224D01*
X114853066Y-104261875D01*
X114896343Y-104298838D01*
X114896346Y-104298839D01*
X115111140Y-104430466D01*
X115343889Y-104526873D01*
X115588852Y-104585683D01*
X115840000Y-104605449D01*
X116091148Y-104585683D01*
X116336111Y-104526873D01*
X116568859Y-104430466D01*
X116783659Y-104298836D01*
X116975224Y-104135224D01*
X117138836Y-103943659D01*
X117270466Y-103728859D01*
X117366873Y-103496111D01*
X117425683Y-103251148D01*
X117445449Y-103000000D01*
X117425683Y-102748852D01*
X117366873Y-102503889D01*
X117355102Y-102475472D01*
X117270466Y-102271140D01*
X117138839Y-102056346D01*
X117138838Y-102056343D01*
X117070730Y-101976599D01*
X116975224Y-101864776D01*
X116960423Y-101852135D01*
X124399500Y-101852135D01*
X124399500Y-104147870D01*
X124399501Y-104147876D01*
X124405908Y-104207483D01*
X124456202Y-104342328D01*
X124456206Y-104342335D01*
X124542452Y-104457544D01*
X124542455Y-104457547D01*
X124657664Y-104543793D01*
X124657671Y-104543797D01*
X124792517Y-104594091D01*
X124792516Y-104594091D01*
X124799444Y-104594835D01*
X124852127Y-104600500D01*
X127147872Y-104600499D01*
X127207483Y-104594091D01*
X127342331Y-104543796D01*
X127457546Y-104457546D01*
X127543796Y-104342331D01*
X127594091Y-104207483D01*
X127600500Y-104147873D01*
X127600499Y-101852128D01*
X127594091Y-101792517D01*
X127578233Y-101750000D01*
X127578232Y-101749997D01*
X132945034Y-101749997D01*
X132945034Y-101750002D01*
X132964858Y-101976599D01*
X132964860Y-101976610D01*
X133023730Y-102196317D01*
X133023735Y-102196331D01*
X133119863Y-102402478D01*
X133170974Y-102475472D01*
X133850000Y-101796446D01*
X133850000Y-101802661D01*
X133877259Y-101904394D01*
X133929920Y-101995606D01*
X134004394Y-102070080D01*
X134095606Y-102122741D01*
X134197339Y-102150000D01*
X134203553Y-102150000D01*
X133524526Y-102829025D01*
X133597513Y-102880132D01*
X133597521Y-102880136D01*
X133803668Y-102976264D01*
X133803682Y-102976269D01*
X134023389Y-103035139D01*
X134023400Y-103035141D01*
X134249998Y-103054966D01*
X134250002Y-103054966D01*
X134476599Y-103035141D01*
X134476610Y-103035139D01*
X134696317Y-102976269D01*
X134696331Y-102976264D01*
X134902478Y-102880136D01*
X134975471Y-102829024D01*
X134296447Y-102150000D01*
X134302661Y-102150000D01*
X134404394Y-102122741D01*
X134495606Y-102070080D01*
X134570080Y-101995606D01*
X134622741Y-101904394D01*
X134650000Y-101802661D01*
X134650000Y-101796447D01*
X135334197Y-102480644D01*
X135383192Y-102490491D01*
X135433375Y-102539106D01*
X135448049Y-102594632D01*
X135449099Y-102594576D01*
X135449146Y-102594571D01*
X135449146Y-102594573D01*
X135449324Y-102594564D01*
X135449501Y-102597876D01*
X135455908Y-102657483D01*
X135506202Y-102792328D01*
X135506206Y-102792335D01*
X135592452Y-102907544D01*
X135592455Y-102907547D01*
X135707664Y-102993793D01*
X135707671Y-102993797D01*
X135842517Y-103044091D01*
X135842516Y-103044091D01*
X135849444Y-103044835D01*
X135902127Y-103050500D01*
X137597872Y-103050499D01*
X137657483Y-103044091D01*
X137792331Y-102993796D01*
X137907546Y-102907546D01*
X137993796Y-102792331D01*
X138044091Y-102657483D01*
X138050500Y-102597873D01*
X138050499Y-100902128D01*
X138044091Y-100842517D01*
X137993796Y-100707669D01*
X137993795Y-100707668D01*
X137993793Y-100707664D01*
X137907547Y-100592455D01*
X137907544Y-100592452D01*
X137792335Y-100506206D01*
X137792328Y-100506202D01*
X137657482Y-100455908D01*
X137657483Y-100455908D01*
X137597883Y-100449501D01*
X137597881Y-100449500D01*
X137597873Y-100449500D01*
X137597864Y-100449500D01*
X135902129Y-100449500D01*
X135902123Y-100449501D01*
X135842516Y-100455908D01*
X135707671Y-100506202D01*
X135707664Y-100506206D01*
X135592455Y-100592452D01*
X135592452Y-100592455D01*
X135506206Y-100707664D01*
X135506202Y-100707671D01*
X135455908Y-100842517D01*
X135449501Y-100902116D01*
X135449501Y-100902123D01*
X135449322Y-100905452D01*
X135447847Y-100905372D01*
X135429815Y-100966784D01*
X135377011Y-101012539D01*
X135333522Y-101020029D01*
X134650000Y-101703551D01*
X134650000Y-101697339D01*
X134622741Y-101595606D01*
X134570080Y-101504394D01*
X134495606Y-101429920D01*
X134404394Y-101377259D01*
X134302661Y-101350000D01*
X134296448Y-101350000D01*
X134975472Y-100670974D01*
X134902478Y-100619863D01*
X134696331Y-100523735D01*
X134696317Y-100523730D01*
X134476610Y-100464860D01*
X134476599Y-100464858D01*
X134250002Y-100445034D01*
X134249998Y-100445034D01*
X134023400Y-100464858D01*
X134023389Y-100464860D01*
X133803682Y-100523730D01*
X133803673Y-100523734D01*
X133597516Y-100619866D01*
X133597512Y-100619868D01*
X133524526Y-100670973D01*
X133524526Y-100670974D01*
X134203553Y-101350000D01*
X134197339Y-101350000D01*
X134095606Y-101377259D01*
X134004394Y-101429920D01*
X133929920Y-101504394D01*
X133877259Y-101595606D01*
X133850000Y-101697339D01*
X133850000Y-101703552D01*
X133170974Y-101024526D01*
X133170973Y-101024526D01*
X133119868Y-101097512D01*
X133119866Y-101097516D01*
X133023734Y-101303673D01*
X133023730Y-101303682D01*
X132964860Y-101523389D01*
X132964858Y-101523400D01*
X132945034Y-101749997D01*
X127578232Y-101749997D01*
X127543797Y-101657671D01*
X127543793Y-101657664D01*
X127457547Y-101542455D01*
X127457544Y-101542452D01*
X127342335Y-101456206D01*
X127342328Y-101456202D01*
X127207482Y-101405908D01*
X127207483Y-101405908D01*
X127147883Y-101399501D01*
X127147881Y-101399500D01*
X127147873Y-101399500D01*
X127147864Y-101399500D01*
X124852129Y-101399500D01*
X124852123Y-101399501D01*
X124792516Y-101405908D01*
X124657671Y-101456202D01*
X124657664Y-101456206D01*
X124542455Y-101542452D01*
X124542452Y-101542455D01*
X124456206Y-101657664D01*
X124456202Y-101657671D01*
X124405908Y-101792517D01*
X124404818Y-101802661D01*
X124399501Y-101852123D01*
X124399500Y-101852135D01*
X116960423Y-101852135D01*
X116840835Y-101749997D01*
X116783656Y-101701161D01*
X116783653Y-101701160D01*
X116568859Y-101569533D01*
X116336110Y-101473126D01*
X116091151Y-101414317D01*
X115840000Y-101394551D01*
X115588848Y-101414317D01*
X115343889Y-101473126D01*
X115111140Y-101569533D01*
X114896346Y-101701160D01*
X114896343Y-101701161D01*
X114704776Y-101864776D01*
X114541161Y-102056343D01*
X114541160Y-102056346D01*
X114409533Y-102271140D01*
X114313126Y-102503889D01*
X114254317Y-102748848D01*
X114234551Y-103000000D01*
X111890556Y-103000000D01*
X111810047Y-102892455D01*
X111810044Y-102892452D01*
X111694835Y-102806206D01*
X111694828Y-102806202D01*
X111559982Y-102755908D01*
X111559983Y-102755908D01*
X111500383Y-102749501D01*
X111500381Y-102749500D01*
X111500373Y-102749500D01*
X111500364Y-102749500D01*
X109499629Y-102749500D01*
X109499623Y-102749501D01*
X109440016Y-102755908D01*
X109305171Y-102806202D01*
X109305164Y-102806206D01*
X109189955Y-102892452D01*
X109189952Y-102892455D01*
X109103706Y-103007664D01*
X109103703Y-103007670D01*
X109093308Y-103035541D01*
X109051436Y-103091474D01*
X108985972Y-103115891D01*
X108917699Y-103101039D01*
X108904250Y-103092531D01*
X108721538Y-102959783D01*
X108619017Y-102907546D01*
X108517755Y-102855950D01*
X108300248Y-102785278D01*
X108114812Y-102755908D01*
X108074354Y-102749500D01*
X107845646Y-102749500D01*
X107805188Y-102755908D01*
X107619753Y-102785278D01*
X107619750Y-102785278D01*
X107402244Y-102855950D01*
X107198461Y-102959783D01*
X107132551Y-103007670D01*
X107013434Y-103094214D01*
X107013432Y-103094216D01*
X107013431Y-103094216D01*
X106851716Y-103255931D01*
X106851709Y-103255940D01*
X106790007Y-103340864D01*
X106734677Y-103383530D01*
X106665063Y-103389508D01*
X106603269Y-103356901D01*
X106589372Y-103340863D01*
X106527907Y-103256263D01*
X106527902Y-103256257D01*
X106366242Y-103094597D01*
X106181276Y-102960211D01*
X105977568Y-102856417D01*
X105760124Y-102785765D01*
X105670000Y-102771490D01*
X105670000Y-103759252D01*
X105632292Y-103737482D01*
X105492409Y-103700000D01*
X105347591Y-103700000D01*
X105207708Y-103737482D01*
X105170000Y-103759252D01*
X105170000Y-102771490D01*
X105169999Y-102771490D01*
X105079875Y-102785765D01*
X104862431Y-102856417D01*
X104658723Y-102960211D01*
X104473757Y-103094597D01*
X104312097Y-103256257D01*
X104177711Y-103441223D01*
X104073917Y-103644929D01*
X104003265Y-103862371D01*
X103981468Y-104000000D01*
X100750500Y-104000000D01*
X100750500Y-97852135D01*
X102649500Y-97852135D01*
X102649500Y-99647870D01*
X102649501Y-99647876D01*
X102655908Y-99707483D01*
X102706202Y-99842328D01*
X102706206Y-99842335D01*
X102792452Y-99957544D01*
X102792455Y-99957547D01*
X102907664Y-100043793D01*
X102907671Y-100043797D01*
X103042517Y-100094091D01*
X103042516Y-100094091D01*
X103049444Y-100094835D01*
X103102127Y-100100500D01*
X104897872Y-100100499D01*
X104957483Y-100094091D01*
X105092331Y-100043796D01*
X105207546Y-99957546D01*
X105293796Y-99842331D01*
X105344091Y-99707483D01*
X105350500Y-99647873D01*
X105350499Y-98749998D01*
X106534532Y-98749998D01*
X106534532Y-98750000D01*
X106554364Y-98976686D01*
X106554366Y-98976697D01*
X106613258Y-99196488D01*
X106613261Y-99196497D01*
X106709431Y-99402732D01*
X106709432Y-99402734D01*
X106839954Y-99589141D01*
X107000858Y-99750045D01*
X107000861Y-99750047D01*
X107187266Y-99880568D01*
X107393504Y-99976739D01*
X107613308Y-100035635D01*
X107775230Y-100049801D01*
X107839998Y-100055468D01*
X107840000Y-100055468D01*
X107840002Y-100055468D01*
X107896673Y-100050509D01*
X108066692Y-100035635D01*
X108286496Y-99976739D01*
X108492734Y-99880568D01*
X108679139Y-99750047D01*
X108840047Y-99589139D01*
X108970568Y-99402734D01*
X109066739Y-99196496D01*
X109125635Y-98976692D01*
X109145468Y-98750000D01*
X109125635Y-98523308D01*
X109119389Y-98499999D01*
X116721127Y-98499999D01*
X116721128Y-98500000D01*
X117684314Y-98500000D01*
X117679920Y-98504394D01*
X117627259Y-98595606D01*
X117600000Y-98697339D01*
X117600000Y-98802661D01*
X117627259Y-98904394D01*
X117679920Y-98995606D01*
X117684314Y-99000000D01*
X116721128Y-99000000D01*
X116773730Y-99196317D01*
X116773734Y-99196326D01*
X116869865Y-99402482D01*
X117000342Y-99588820D01*
X117161179Y-99749657D01*
X117347517Y-99880134D01*
X117553673Y-99976265D01*
X117553682Y-99976269D01*
X117749999Y-100028872D01*
X117750000Y-100028871D01*
X117750000Y-99065686D01*
X117754394Y-99070080D01*
X117845606Y-99122741D01*
X117947339Y-99150000D01*
X118052661Y-99150000D01*
X118154394Y-99122741D01*
X118245606Y-99070080D01*
X118250000Y-99065686D01*
X118250000Y-100028872D01*
X118446317Y-99976269D01*
X118446326Y-99976265D01*
X118652482Y-99880134D01*
X118838820Y-99749657D01*
X118999657Y-99588820D01*
X119130134Y-99402482D01*
X119226265Y-99196326D01*
X119226269Y-99196317D01*
X119278872Y-99000000D01*
X118315686Y-99000000D01*
X118320080Y-98995606D01*
X118372741Y-98904394D01*
X118400000Y-98802661D01*
X118400000Y-98697339D01*
X118372741Y-98595606D01*
X118320080Y-98504394D01*
X118315686Y-98500000D01*
X119278872Y-98500000D01*
X119278872Y-98499999D01*
X119226269Y-98303682D01*
X119226265Y-98303673D01*
X119130134Y-98097517D01*
X118999657Y-97911179D01*
X118838820Y-97750342D01*
X118652482Y-97619865D01*
X118446328Y-97523734D01*
X118250000Y-97471127D01*
X118250000Y-98434314D01*
X118245606Y-98429920D01*
X118154394Y-98377259D01*
X118052661Y-98350000D01*
X117947339Y-98350000D01*
X117845606Y-98377259D01*
X117754394Y-98429920D01*
X117750000Y-98434314D01*
X117750000Y-97471127D01*
X117553671Y-97523734D01*
X117347517Y-97619865D01*
X117161179Y-97750342D01*
X117000342Y-97911179D01*
X116869865Y-98097517D01*
X116773734Y-98303673D01*
X116773730Y-98303682D01*
X116721127Y-98499999D01*
X109119389Y-98499999D01*
X109066739Y-98303504D01*
X108970568Y-98097266D01*
X108840047Y-97910861D01*
X108840045Y-97910858D01*
X108679141Y-97749954D01*
X108492734Y-97619432D01*
X108492732Y-97619431D01*
X108286497Y-97523261D01*
X108286488Y-97523258D01*
X108066697Y-97464366D01*
X108066693Y-97464365D01*
X108066692Y-97464365D01*
X108066691Y-97464364D01*
X108066686Y-97464364D01*
X107840002Y-97444532D01*
X107839998Y-97444532D01*
X107613313Y-97464364D01*
X107613302Y-97464366D01*
X107393511Y-97523258D01*
X107393502Y-97523261D01*
X107187267Y-97619431D01*
X107187265Y-97619432D01*
X107000858Y-97749954D01*
X106839954Y-97910858D01*
X106709432Y-98097265D01*
X106709431Y-98097267D01*
X106613261Y-98303502D01*
X106613258Y-98303511D01*
X106554366Y-98523302D01*
X106554364Y-98523313D01*
X106534532Y-98749998D01*
X105350499Y-98749998D01*
X105350499Y-97852128D01*
X105344091Y-97792517D01*
X105335710Y-97770047D01*
X105293797Y-97657671D01*
X105293793Y-97657664D01*
X105207547Y-97542455D01*
X105207544Y-97542452D01*
X105092335Y-97456206D01*
X105092328Y-97456202D01*
X104957482Y-97405908D01*
X104957483Y-97405908D01*
X104897883Y-97399501D01*
X104897881Y-97399500D01*
X104897873Y-97399500D01*
X104897864Y-97399500D01*
X103102129Y-97399500D01*
X103102123Y-97399501D01*
X103042516Y-97405908D01*
X102907671Y-97456202D01*
X102907664Y-97456206D01*
X102792455Y-97542452D01*
X102792452Y-97542455D01*
X102706206Y-97657664D01*
X102706202Y-97657671D01*
X102655908Y-97792517D01*
X102649501Y-97852116D01*
X102649501Y-97852123D01*
X102649500Y-97852135D01*
X100750500Y-97852135D01*
X100750500Y-89702155D01*
X103210000Y-89702155D01*
X103210000Y-91000000D01*
X104490936Y-91000000D01*
X104479207Y-91028316D01*
X104450000Y-91175147D01*
X104450000Y-91324853D01*
X104479207Y-91471684D01*
X104490936Y-91500000D01*
X103210000Y-91500000D01*
X103210000Y-92797844D01*
X103216401Y-92857372D01*
X103216403Y-92857379D01*
X103266645Y-92992086D01*
X103266649Y-92992093D01*
X103352809Y-93107187D01*
X103352812Y-93107190D01*
X103467906Y-93193350D01*
X103467913Y-93193354D01*
X103602620Y-93243596D01*
X103602627Y-93243598D01*
X103662155Y-93249999D01*
X103662172Y-93250000D01*
X104960000Y-93250000D01*
X104960000Y-91969064D01*
X104988316Y-91980793D01*
X105135147Y-92010000D01*
X105284853Y-92010000D01*
X105431684Y-91980793D01*
X105460000Y-91969064D01*
X105460000Y-93250000D01*
X106757828Y-93250000D01*
X106757844Y-93249999D01*
X106817372Y-93243598D01*
X106817379Y-93243596D01*
X106952086Y-93193354D01*
X106952093Y-93193350D01*
X107067187Y-93107190D01*
X107067190Y-93107187D01*
X107153350Y-92992093D01*
X107153354Y-92992086D01*
X107203596Y-92857379D01*
X107203598Y-92857372D01*
X107209999Y-92797844D01*
X107210000Y-92797827D01*
X107210000Y-91500000D01*
X105929064Y-91500000D01*
X105940793Y-91471684D01*
X105970000Y-91324853D01*
X105970000Y-91249998D01*
X108284390Y-91249998D01*
X108284390Y-91250001D01*
X108304804Y-91535433D01*
X108365628Y-91815037D01*
X108365630Y-91815043D01*
X108365631Y-91815046D01*
X108443468Y-92023734D01*
X108465635Y-92083166D01*
X108602770Y-92334309D01*
X108602775Y-92334317D01*
X108774254Y-92563387D01*
X108774270Y-92563405D01*
X108976594Y-92765729D01*
X108976612Y-92765745D01*
X109205682Y-92937224D01*
X109205690Y-92937229D01*
X109456833Y-93074364D01*
X109456832Y-93074364D01*
X109456836Y-93074365D01*
X109456839Y-93074367D01*
X109724954Y-93174369D01*
X109724960Y-93174370D01*
X109724962Y-93174371D01*
X110004566Y-93235195D01*
X110004568Y-93235195D01*
X110004572Y-93235196D01*
X110258220Y-93253337D01*
X110289999Y-93255610D01*
X110290000Y-93255610D01*
X110290001Y-93255610D01*
X110318595Y-93253564D01*
X110368457Y-93249998D01*
X125194532Y-93249998D01*
X125194532Y-93250000D01*
X125214364Y-93476686D01*
X125214366Y-93476697D01*
X125273258Y-93696488D01*
X125273261Y-93696497D01*
X125369431Y-93902732D01*
X125369432Y-93902734D01*
X125499954Y-94089141D01*
X125660858Y-94250045D01*
X125660861Y-94250047D01*
X125847266Y-94380568D01*
X126053504Y-94476739D01*
X126273308Y-94535635D01*
X126435230Y-94549801D01*
X126499998Y-94555468D01*
X126500000Y-94555468D01*
X126500002Y-94555468D01*
X126556673Y-94550509D01*
X126726692Y-94535635D01*
X126946496Y-94476739D01*
X127152734Y-94380568D01*
X127339139Y-94250047D01*
X127500047Y-94089139D01*
X127630568Y-93902734D01*
X127637893Y-93887024D01*
X127684064Y-93834586D01*
X127751257Y-93815433D01*
X127818138Y-93835648D01*
X127862657Y-93887024D01*
X127869864Y-93902480D01*
X127920974Y-93975472D01*
X128600000Y-93296446D01*
X128600000Y-93302661D01*
X128627259Y-93404394D01*
X128679920Y-93495606D01*
X128754394Y-93570080D01*
X128845606Y-93622741D01*
X128947339Y-93650000D01*
X128953553Y-93650000D01*
X128274526Y-94329025D01*
X128347513Y-94380132D01*
X128347521Y-94380136D01*
X128553668Y-94476264D01*
X128553682Y-94476269D01*
X128773389Y-94535139D01*
X128773400Y-94535141D01*
X128999998Y-94554966D01*
X129000002Y-94554966D01*
X129226599Y-94535141D01*
X129226610Y-94535139D01*
X129446317Y-94476269D01*
X129446331Y-94476264D01*
X129652478Y-94380136D01*
X129725471Y-94329024D01*
X129046447Y-93650000D01*
X129052661Y-93650000D01*
X129154394Y-93622741D01*
X129245606Y-93570080D01*
X129320080Y-93495606D01*
X129372741Y-93404394D01*
X129400000Y-93302661D01*
X129400000Y-93296447D01*
X130079024Y-93975471D01*
X130130136Y-93902478D01*
X130226264Y-93696331D01*
X130226269Y-93696317D01*
X130278873Y-93499997D01*
X134195034Y-93499997D01*
X134195034Y-93500002D01*
X134214858Y-93726599D01*
X134214860Y-93726610D01*
X134273730Y-93946317D01*
X134273735Y-93946331D01*
X134369863Y-94152478D01*
X134420974Y-94225472D01*
X135100000Y-93546446D01*
X135100000Y-93552661D01*
X135127259Y-93654394D01*
X135179920Y-93745606D01*
X135254394Y-93820080D01*
X135345606Y-93872741D01*
X135447339Y-93900000D01*
X135453553Y-93900000D01*
X134769352Y-94584199D01*
X134759506Y-94633194D01*
X134710890Y-94683377D01*
X134655367Y-94698049D01*
X134655423Y-94699099D01*
X134655429Y-94699146D01*
X134655426Y-94699146D01*
X134655436Y-94699324D01*
X134652123Y-94699501D01*
X134592516Y-94705908D01*
X134457671Y-94756202D01*
X134457664Y-94756206D01*
X134342455Y-94842452D01*
X134342452Y-94842455D01*
X134256206Y-94957664D01*
X134256202Y-94957671D01*
X134205908Y-95092517D01*
X134199501Y-95152116D01*
X134199501Y-95152123D01*
X134199500Y-95152135D01*
X134199500Y-96847870D01*
X134199501Y-96847876D01*
X134205908Y-96907483D01*
X134256202Y-97042328D01*
X134256206Y-97042335D01*
X134342452Y-97157544D01*
X134342455Y-97157547D01*
X134457664Y-97243793D01*
X134457671Y-97243797D01*
X134592517Y-97294091D01*
X134592516Y-97294091D01*
X134599444Y-97294835D01*
X134652127Y-97300500D01*
X136347872Y-97300499D01*
X136407483Y-97294091D01*
X136542331Y-97243796D01*
X136657546Y-97157546D01*
X136743796Y-97042331D01*
X136794091Y-96907483D01*
X136800500Y-96847873D01*
X136800499Y-95459635D01*
X140304500Y-95459635D01*
X140304500Y-97460370D01*
X140304501Y-97460376D01*
X140310908Y-97519983D01*
X140361202Y-97654828D01*
X140361206Y-97654835D01*
X140447452Y-97770044D01*
X140447455Y-97770047D01*
X140562664Y-97856293D01*
X140562667Y-97856295D01*
X140562668Y-97856295D01*
X140562669Y-97856296D01*
X140591025Y-97866872D01*
X140646958Y-97908742D01*
X140671376Y-97974206D01*
X140656525Y-98042479D01*
X140648010Y-98055939D01*
X140515213Y-98238719D01*
X140411417Y-98442429D01*
X140340765Y-98659871D01*
X140326491Y-98750000D01*
X141314252Y-98750000D01*
X141292482Y-98787708D01*
X141255000Y-98927591D01*
X141255000Y-99072409D01*
X141292482Y-99212292D01*
X141314252Y-99250000D01*
X140326491Y-99250000D01*
X140340765Y-99340128D01*
X140411417Y-99557570D01*
X140515211Y-99761276D01*
X140649597Y-99946242D01*
X140811257Y-100107902D01*
X140811263Y-100107907D01*
X140895863Y-100169372D01*
X140938529Y-100224701D01*
X140944508Y-100294315D01*
X140911903Y-100356110D01*
X140895864Y-100370007D01*
X140810940Y-100431709D01*
X140810931Y-100431716D01*
X140649216Y-100593431D01*
X140649216Y-100593432D01*
X140649214Y-100593434D01*
X140592878Y-100670974D01*
X140514783Y-100778461D01*
X140410950Y-100982244D01*
X140340278Y-101199750D01*
X140340278Y-101199753D01*
X140340278Y-101199755D01*
X140304500Y-101425646D01*
X140304500Y-101654354D01*
X140311914Y-101701161D01*
X140340278Y-101880246D01*
X140340278Y-101880249D01*
X140410950Y-102097755D01*
X140461170Y-102196317D01*
X140514783Y-102301538D01*
X140649214Y-102486566D01*
X140810934Y-102648286D01*
X140995962Y-102782717D01*
X141086845Y-102829024D01*
X141199744Y-102886549D01*
X141417251Y-102957221D01*
X141417252Y-102957221D01*
X141417255Y-102957222D01*
X141643146Y-102993000D01*
X141643147Y-102993000D01*
X141966853Y-102993000D01*
X141966854Y-102993000D01*
X142192745Y-102957222D01*
X142192748Y-102957221D01*
X142192749Y-102957221D01*
X142410255Y-102886549D01*
X142410255Y-102886548D01*
X142410258Y-102886548D01*
X142614038Y-102782717D01*
X142799066Y-102648286D01*
X142960786Y-102486566D01*
X143095217Y-102301538D01*
X143199048Y-102097758D01*
X143269722Y-101880245D01*
X143305500Y-101654354D01*
X143305500Y-101425646D01*
X143269722Y-101199755D01*
X143269721Y-101199751D01*
X143269721Y-101199750D01*
X143199049Y-100982244D01*
X143191172Y-100966784D01*
X143095217Y-100778462D01*
X142960786Y-100593434D01*
X142799066Y-100431714D01*
X142714134Y-100370007D01*
X142671470Y-100314678D01*
X142665491Y-100245064D01*
X142698097Y-100183269D01*
X142714137Y-100169371D01*
X142798739Y-100107905D01*
X142960402Y-99946242D01*
X143094788Y-99761276D01*
X143198582Y-99557570D01*
X143269234Y-99340128D01*
X143283509Y-99250000D01*
X142295748Y-99250000D01*
X142317518Y-99212292D01*
X142355000Y-99072409D01*
X142355000Y-98927591D01*
X142317518Y-98787708D01*
X142295748Y-98750000D01*
X143283509Y-98750000D01*
X143269234Y-98659871D01*
X143198582Y-98442429D01*
X143094788Y-98238723D01*
X142961988Y-98055940D01*
X142938508Y-97990133D01*
X142954333Y-97922079D01*
X143004439Y-97873384D01*
X143018966Y-97866875D01*
X143047331Y-97856296D01*
X143162546Y-97770046D01*
X143248796Y-97654831D01*
X143299091Y-97519983D01*
X143305500Y-97460373D01*
X143305499Y-95459628D01*
X143299091Y-95400017D01*
X143248796Y-95265169D01*
X143248795Y-95265168D01*
X143248793Y-95265164D01*
X143162547Y-95149955D01*
X143162544Y-95149952D01*
X143047335Y-95063706D01*
X143047328Y-95063702D01*
X142912482Y-95013408D01*
X142912483Y-95013408D01*
X142852883Y-95007001D01*
X142852881Y-95007000D01*
X142852873Y-95007000D01*
X142852864Y-95007000D01*
X140757129Y-95007000D01*
X140757123Y-95007001D01*
X140697516Y-95013408D01*
X140562671Y-95063702D01*
X140562664Y-95063706D01*
X140447455Y-95149952D01*
X140447452Y-95149955D01*
X140361206Y-95265164D01*
X140361202Y-95265171D01*
X140310908Y-95400017D01*
X140304501Y-95459616D01*
X140304501Y-95459623D01*
X140304500Y-95459635D01*
X136800499Y-95459635D01*
X136800499Y-95152128D01*
X136794091Y-95092517D01*
X136783345Y-95063706D01*
X136743797Y-94957671D01*
X136743793Y-94957664D01*
X136657547Y-94842455D01*
X136657544Y-94842452D01*
X136542335Y-94756206D01*
X136542328Y-94756202D01*
X136407482Y-94705908D01*
X136407483Y-94705908D01*
X136347883Y-94699501D01*
X136347881Y-94699500D01*
X136347873Y-94699500D01*
X136347864Y-94699500D01*
X136344548Y-94699322D01*
X136344627Y-94697847D01*
X136283215Y-94679815D01*
X136237460Y-94627011D01*
X136229969Y-94583522D01*
X135546447Y-93900000D01*
X135552661Y-93900000D01*
X135654394Y-93872741D01*
X135745606Y-93820080D01*
X135820080Y-93745606D01*
X135872741Y-93654394D01*
X135900000Y-93552661D01*
X135900000Y-93546447D01*
X136579024Y-94225471D01*
X136630136Y-94152478D01*
X136726264Y-93946331D01*
X136726269Y-93946317D01*
X136785139Y-93726610D01*
X136785141Y-93726599D01*
X136804966Y-93500002D01*
X136804966Y-93499997D01*
X136785141Y-93273400D01*
X136785139Y-93273389D01*
X136726269Y-93053682D01*
X136726264Y-93053668D01*
X136630136Y-92847521D01*
X136630132Y-92847513D01*
X136579025Y-92774526D01*
X135900000Y-93453551D01*
X135900000Y-93447339D01*
X135872741Y-93345606D01*
X135820080Y-93254394D01*
X135745606Y-93179920D01*
X135654394Y-93127259D01*
X135552661Y-93100000D01*
X135546448Y-93100000D01*
X136225472Y-92420974D01*
X136152478Y-92369863D01*
X135946331Y-92273735D01*
X135946317Y-92273730D01*
X135726610Y-92214860D01*
X135726599Y-92214858D01*
X135500002Y-92195034D01*
X135499998Y-92195034D01*
X135273400Y-92214858D01*
X135273389Y-92214860D01*
X135053682Y-92273730D01*
X135053673Y-92273734D01*
X134847516Y-92369866D01*
X134847512Y-92369868D01*
X134774526Y-92420973D01*
X134774526Y-92420974D01*
X135453553Y-93100000D01*
X135447339Y-93100000D01*
X135345606Y-93127259D01*
X135254394Y-93179920D01*
X135179920Y-93254394D01*
X135127259Y-93345606D01*
X135100000Y-93447339D01*
X135100000Y-93453552D01*
X134420974Y-92774526D01*
X134420973Y-92774526D01*
X134369868Y-92847512D01*
X134369866Y-92847516D01*
X134273734Y-93053673D01*
X134273730Y-93053682D01*
X134214860Y-93273389D01*
X134214858Y-93273400D01*
X134195034Y-93499997D01*
X130278873Y-93499997D01*
X130285139Y-93476610D01*
X130285141Y-93476599D01*
X130304966Y-93250000D01*
X130304966Y-93249997D01*
X130285141Y-93023400D01*
X130285139Y-93023389D01*
X130226269Y-92803682D01*
X130226264Y-92803668D01*
X130130136Y-92597521D01*
X130130132Y-92597513D01*
X130079025Y-92524526D01*
X129400000Y-93203551D01*
X129400000Y-93197339D01*
X129372741Y-93095606D01*
X129320080Y-93004394D01*
X129245606Y-92929920D01*
X129154394Y-92877259D01*
X129052661Y-92850000D01*
X129046448Y-92850000D01*
X129725472Y-92170974D01*
X129652478Y-92119863D01*
X129446331Y-92023735D01*
X129446317Y-92023730D01*
X129226610Y-91964860D01*
X129226599Y-91964858D01*
X129000002Y-91945034D01*
X128999998Y-91945034D01*
X128773400Y-91964858D01*
X128773389Y-91964860D01*
X128553682Y-92023730D01*
X128553673Y-92023734D01*
X128347516Y-92119866D01*
X128347512Y-92119868D01*
X128274526Y-92170973D01*
X128274526Y-92170974D01*
X128953553Y-92850000D01*
X128947339Y-92850000D01*
X128845606Y-92877259D01*
X128754394Y-92929920D01*
X128679920Y-93004394D01*
X128627259Y-93095606D01*
X128600000Y-93197339D01*
X128600000Y-93203552D01*
X127920974Y-92524526D01*
X127920973Y-92524526D01*
X127869868Y-92597512D01*
X127869867Y-92597514D01*
X127862656Y-92612979D01*
X127816482Y-92665417D01*
X127749288Y-92684567D01*
X127682407Y-92664350D01*
X127637893Y-92612976D01*
X127630568Y-92597266D01*
X127507128Y-92420974D01*
X127500045Y-92410858D01*
X127339141Y-92249954D01*
X127152734Y-92119432D01*
X127152732Y-92119431D01*
X126946497Y-92023261D01*
X126946488Y-92023258D01*
X126726697Y-91964366D01*
X126726693Y-91964365D01*
X126726692Y-91964365D01*
X126726691Y-91964364D01*
X126726686Y-91964364D01*
X126500002Y-91944532D01*
X126499998Y-91944532D01*
X126273313Y-91964364D01*
X126273302Y-91964366D01*
X126053511Y-92023258D01*
X126053502Y-92023261D01*
X125847267Y-92119431D01*
X125847265Y-92119432D01*
X125660858Y-92249954D01*
X125499954Y-92410858D01*
X125369432Y-92597265D01*
X125369431Y-92597267D01*
X125273261Y-92803502D01*
X125273258Y-92803511D01*
X125214366Y-93023302D01*
X125214364Y-93023313D01*
X125194532Y-93249998D01*
X110368457Y-93249998D01*
X110575428Y-93235196D01*
X110749455Y-93197339D01*
X110855037Y-93174371D01*
X110855037Y-93174370D01*
X110855046Y-93174369D01*
X111123161Y-93074367D01*
X111374315Y-92937226D01*
X111603395Y-92765739D01*
X111805739Y-92563395D01*
X111977226Y-92334315D01*
X112114367Y-92083161D01*
X112214369Y-91815046D01*
X112275196Y-91535428D01*
X112295610Y-91250000D01*
X112275196Y-90964572D01*
X112214369Y-90684954D01*
X112114367Y-90416839D01*
X112073682Y-90342331D01*
X111977229Y-90165690D01*
X111977224Y-90165682D01*
X111805745Y-89936612D01*
X111805729Y-89936594D01*
X111603405Y-89734270D01*
X111603387Y-89734254D01*
X111374317Y-89562775D01*
X111374309Y-89562770D01*
X111123166Y-89425635D01*
X111123167Y-89425635D01*
X111015915Y-89385632D01*
X110855046Y-89325631D01*
X110855043Y-89325630D01*
X110855037Y-89325628D01*
X110575433Y-89264804D01*
X110290001Y-89244390D01*
X110289999Y-89244390D01*
X110004566Y-89264804D01*
X109724962Y-89325628D01*
X109456833Y-89425635D01*
X109205690Y-89562770D01*
X109205682Y-89562775D01*
X108976612Y-89734254D01*
X108976594Y-89734270D01*
X108774270Y-89936594D01*
X108774254Y-89936612D01*
X108602775Y-90165682D01*
X108602770Y-90165690D01*
X108465635Y-90416833D01*
X108365628Y-90684962D01*
X108304804Y-90964566D01*
X108284390Y-91249998D01*
X105970000Y-91249998D01*
X105970000Y-91175147D01*
X105940793Y-91028316D01*
X105929064Y-91000000D01*
X107210000Y-91000000D01*
X107210000Y-89702172D01*
X107209999Y-89702155D01*
X107203598Y-89642627D01*
X107203596Y-89642620D01*
X107153354Y-89507913D01*
X107153350Y-89507906D01*
X107067190Y-89392812D01*
X107067187Y-89392809D01*
X106952093Y-89306649D01*
X106952086Y-89306645D01*
X106817379Y-89256403D01*
X106817372Y-89256401D01*
X106757844Y-89250000D01*
X105460000Y-89250000D01*
X105460000Y-90530935D01*
X105431684Y-90519207D01*
X105284853Y-90490000D01*
X105135147Y-90490000D01*
X104988316Y-90519207D01*
X104960000Y-90530935D01*
X104960000Y-89250000D01*
X103662155Y-89250000D01*
X103602627Y-89256401D01*
X103602620Y-89256403D01*
X103467913Y-89306645D01*
X103467906Y-89306649D01*
X103352812Y-89392809D01*
X103352809Y-89392812D01*
X103266649Y-89507906D01*
X103266645Y-89507913D01*
X103216403Y-89642620D01*
X103216401Y-89642627D01*
X103210000Y-89702155D01*
X100750500Y-89702155D01*
X100750500Y-88352135D01*
X126399500Y-88352135D01*
X126399500Y-90147870D01*
X126399501Y-90147876D01*
X126405908Y-90207483D01*
X126456202Y-90342328D01*
X126456206Y-90342335D01*
X126542452Y-90457544D01*
X126542455Y-90457547D01*
X126657664Y-90543793D01*
X126657671Y-90543797D01*
X126792517Y-90594091D01*
X126792516Y-90594091D01*
X126799444Y-90594835D01*
X126852127Y-90600500D01*
X128647872Y-90600499D01*
X128707483Y-90594091D01*
X128842331Y-90543796D01*
X128957546Y-90457546D01*
X129043796Y-90342331D01*
X129094091Y-90207483D01*
X129100500Y-90147873D01*
X129100499Y-88352128D01*
X129094091Y-88292517D01*
X129078233Y-88250000D01*
X129078232Y-88249998D01*
X134494390Y-88249998D01*
X134494390Y-88250001D01*
X134514804Y-88535433D01*
X134575628Y-88815037D01*
X134675635Y-89083166D01*
X134812770Y-89334309D01*
X134812775Y-89334317D01*
X134984254Y-89563387D01*
X134984270Y-89563405D01*
X135186594Y-89765729D01*
X135186612Y-89765745D01*
X135415682Y-89937224D01*
X135415690Y-89937229D01*
X135666833Y-90074364D01*
X135666832Y-90074364D01*
X135666836Y-90074365D01*
X135666839Y-90074367D01*
X135934954Y-90174369D01*
X135934960Y-90174370D01*
X135934962Y-90174371D01*
X136214566Y-90235195D01*
X136214568Y-90235195D01*
X136214572Y-90235196D01*
X136468220Y-90253337D01*
X136499999Y-90255610D01*
X136500000Y-90255610D01*
X136500001Y-90255610D01*
X136528595Y-90253564D01*
X136785428Y-90235196D01*
X137065046Y-90174369D01*
X137333161Y-90074367D01*
X137584315Y-89937226D01*
X137813395Y-89765739D01*
X138015739Y-89563395D01*
X138187226Y-89334315D01*
X138324367Y-89083161D01*
X138424369Y-88815046D01*
X138485196Y-88535428D01*
X138505610Y-88250000D01*
X138485196Y-87964572D01*
X138483375Y-87956202D01*
X138424371Y-87684962D01*
X138424370Y-87684960D01*
X138424369Y-87684954D01*
X138324367Y-87416839D01*
X138187226Y-87165685D01*
X138187224Y-87165682D01*
X138015745Y-86936612D01*
X138015729Y-86936594D01*
X137813405Y-86734270D01*
X137813387Y-86734254D01*
X137584317Y-86562775D01*
X137584309Y-86562770D01*
X137333166Y-86425635D01*
X137333167Y-86425635D01*
X137225915Y-86385632D01*
X137065046Y-86325631D01*
X137065043Y-86325630D01*
X137065037Y-86325628D01*
X136785433Y-86264804D01*
X136500001Y-86244390D01*
X136499999Y-86244390D01*
X136214566Y-86264804D01*
X135934962Y-86325628D01*
X135666833Y-86425635D01*
X135415690Y-86562770D01*
X135415682Y-86562775D01*
X135186612Y-86734254D01*
X135186594Y-86734270D01*
X134984270Y-86936594D01*
X134984254Y-86936612D01*
X134812775Y-87165682D01*
X134812770Y-87165690D01*
X134675635Y-87416833D01*
X134575628Y-87684962D01*
X134514804Y-87964566D01*
X134494390Y-88249998D01*
X129078232Y-88249998D01*
X129043797Y-88157671D01*
X129043793Y-88157664D01*
X128957547Y-88042455D01*
X128957544Y-88042452D01*
X128842335Y-87956206D01*
X128842328Y-87956202D01*
X128707482Y-87905908D01*
X128707483Y-87905908D01*
X128647883Y-87899501D01*
X128647881Y-87899500D01*
X128647873Y-87899500D01*
X128647864Y-87899500D01*
X126852129Y-87899500D01*
X126852123Y-87899501D01*
X126792516Y-87905908D01*
X126657671Y-87956202D01*
X126657664Y-87956206D01*
X126542455Y-88042452D01*
X126542452Y-88042455D01*
X126456206Y-88157664D01*
X126456202Y-88157671D01*
X126405908Y-88292517D01*
X126399501Y-88352116D01*
X126399501Y-88352123D01*
X126399500Y-88352135D01*
X100750500Y-88352135D01*
X100750500Y-82128711D01*
X102899500Y-82128711D01*
X102899500Y-82371288D01*
X102928616Y-82592455D01*
X102931162Y-82611789D01*
X102954221Y-82697847D01*
X102993947Y-82846104D01*
X103017156Y-82902135D01*
X103086776Y-83070212D01*
X103208064Y-83280289D01*
X103208066Y-83280292D01*
X103208067Y-83280293D01*
X103355733Y-83472736D01*
X103355739Y-83472743D01*
X103527256Y-83644260D01*
X103527262Y-83644265D01*
X103719711Y-83791936D01*
X103929788Y-83913224D01*
X104153900Y-84006054D01*
X104388211Y-84068838D01*
X104568586Y-84092584D01*
X104628711Y-84100500D01*
X104628712Y-84100500D01*
X104871289Y-84100500D01*
X104919388Y-84094167D01*
X105111789Y-84068838D01*
X105346100Y-84006054D01*
X105570212Y-83913224D01*
X105780289Y-83791936D01*
X105972738Y-83644265D01*
X106144265Y-83472738D01*
X106291936Y-83280289D01*
X106413224Y-83070212D01*
X106506054Y-82846100D01*
X106568838Y-82611789D01*
X106600500Y-82371288D01*
X106600500Y-82128712D01*
X106568838Y-81888211D01*
X106506054Y-81653900D01*
X106413224Y-81429788D01*
X106309422Y-81249997D01*
X112445034Y-81249997D01*
X112445034Y-81250002D01*
X112464858Y-81476599D01*
X112464860Y-81476610D01*
X112523730Y-81696317D01*
X112523735Y-81696331D01*
X112619863Y-81902478D01*
X112670974Y-81975472D01*
X113350000Y-81296446D01*
X113350000Y-81302661D01*
X113377259Y-81404394D01*
X113429920Y-81495606D01*
X113504394Y-81570080D01*
X113595606Y-81622741D01*
X113697339Y-81650000D01*
X113703553Y-81650000D01*
X113019352Y-82334199D01*
X113009506Y-82383194D01*
X112960890Y-82433377D01*
X112905367Y-82448049D01*
X112905423Y-82449099D01*
X112905429Y-82449146D01*
X112905426Y-82449146D01*
X112905436Y-82449324D01*
X112902123Y-82449501D01*
X112842516Y-82455908D01*
X112707671Y-82506202D01*
X112707664Y-82506206D01*
X112592455Y-82592452D01*
X112592452Y-82592455D01*
X112506206Y-82707664D01*
X112506202Y-82707671D01*
X112455908Y-82842517D01*
X112449501Y-82902116D01*
X112449501Y-82902123D01*
X112449500Y-82902135D01*
X112449500Y-84597870D01*
X112449501Y-84597876D01*
X112455908Y-84657483D01*
X112506202Y-84792328D01*
X112506206Y-84792335D01*
X112592452Y-84907544D01*
X112592455Y-84907547D01*
X112707664Y-84993793D01*
X112707671Y-84993797D01*
X112842517Y-85044091D01*
X112842516Y-85044091D01*
X112849444Y-85044835D01*
X112902127Y-85050500D01*
X114597872Y-85050499D01*
X114657483Y-85044091D01*
X114792331Y-84993796D01*
X114907546Y-84907546D01*
X114993796Y-84792331D01*
X115044091Y-84657483D01*
X115050500Y-84597873D01*
X115050499Y-82902128D01*
X115044091Y-82842517D01*
X115011898Y-82756204D01*
X114993797Y-82707671D01*
X114993793Y-82707664D01*
X114907547Y-82592455D01*
X114907544Y-82592452D01*
X114792335Y-82506206D01*
X114792328Y-82506202D01*
X114657482Y-82455908D01*
X114657483Y-82455908D01*
X114597883Y-82449501D01*
X114597881Y-82449500D01*
X114597873Y-82449500D01*
X114597864Y-82449500D01*
X114594548Y-82449322D01*
X114594627Y-82447847D01*
X114533215Y-82429815D01*
X114487460Y-82377011D01*
X114479969Y-82333522D01*
X113796447Y-81650000D01*
X113802661Y-81650000D01*
X113904394Y-81622741D01*
X113995606Y-81570080D01*
X114070080Y-81495606D01*
X114122741Y-81404394D01*
X114150000Y-81302661D01*
X114150000Y-81296447D01*
X114829024Y-81975471D01*
X114880136Y-81902478D01*
X114976264Y-81696331D01*
X114976269Y-81696317D01*
X115028873Y-81499997D01*
X125695034Y-81499997D01*
X125695034Y-81500002D01*
X125714858Y-81726599D01*
X125714860Y-81726610D01*
X125773730Y-81946317D01*
X125773735Y-81946331D01*
X125869863Y-82152478D01*
X125920974Y-82225472D01*
X126600000Y-81546446D01*
X126600000Y-81552661D01*
X126627259Y-81654394D01*
X126679920Y-81745606D01*
X126754394Y-81820080D01*
X126845606Y-81872741D01*
X126947339Y-81900000D01*
X126953553Y-81900000D01*
X126269352Y-82584199D01*
X126259506Y-82633194D01*
X126210890Y-82683377D01*
X126155367Y-82698049D01*
X126155423Y-82699099D01*
X126155429Y-82699146D01*
X126155426Y-82699146D01*
X126155436Y-82699324D01*
X126152123Y-82699501D01*
X126092516Y-82705908D01*
X125957671Y-82756202D01*
X125957664Y-82756206D01*
X125842455Y-82842452D01*
X125842452Y-82842455D01*
X125756206Y-82957664D01*
X125756202Y-82957671D01*
X125705908Y-83092517D01*
X125699501Y-83152116D01*
X125699501Y-83152123D01*
X125699500Y-83152135D01*
X125699500Y-84847870D01*
X125699501Y-84847876D01*
X125705908Y-84907483D01*
X125756202Y-85042328D01*
X125756206Y-85042335D01*
X125842452Y-85157544D01*
X125842455Y-85157547D01*
X125957664Y-85243793D01*
X125957671Y-85243797D01*
X126092517Y-85294091D01*
X126092516Y-85294091D01*
X126099444Y-85294835D01*
X126152127Y-85300500D01*
X127847872Y-85300499D01*
X127907483Y-85294091D01*
X128042331Y-85243796D01*
X128157546Y-85157546D01*
X128243796Y-85042331D01*
X128294091Y-84907483D01*
X128300500Y-84847873D01*
X128300499Y-83152128D01*
X128294091Y-83092517D01*
X128285769Y-83070205D01*
X128243797Y-82957671D01*
X128243793Y-82957664D01*
X128157547Y-82842455D01*
X128157544Y-82842452D01*
X128042335Y-82756206D01*
X128042328Y-82756202D01*
X127907482Y-82705908D01*
X127907483Y-82705908D01*
X127847883Y-82699501D01*
X127847881Y-82699500D01*
X127847873Y-82699500D01*
X127847864Y-82699500D01*
X127844548Y-82699322D01*
X127844627Y-82697847D01*
X127783215Y-82679815D01*
X127737460Y-82627011D01*
X127729969Y-82583522D01*
X127046447Y-81900000D01*
X127052661Y-81900000D01*
X127154394Y-81872741D01*
X127245606Y-81820080D01*
X127320080Y-81745606D01*
X127372741Y-81654394D01*
X127400000Y-81552661D01*
X127400000Y-81546447D01*
X128079024Y-82225471D01*
X128130136Y-82152478D01*
X128226264Y-81946331D01*
X128226269Y-81946317D01*
X128285139Y-81726610D01*
X128285141Y-81726599D01*
X128294279Y-81622155D01*
X134500000Y-81622155D01*
X134500000Y-82920000D01*
X135780936Y-82920000D01*
X135769207Y-82948316D01*
X135740000Y-83095147D01*
X135740000Y-83244853D01*
X135769207Y-83391684D01*
X135780936Y-83420000D01*
X134500000Y-83420000D01*
X134500000Y-84717844D01*
X134506401Y-84777372D01*
X134506403Y-84777379D01*
X134556645Y-84912086D01*
X134556649Y-84912093D01*
X134642809Y-85027187D01*
X134642812Y-85027190D01*
X134757906Y-85113350D01*
X134757913Y-85113354D01*
X134892620Y-85163596D01*
X134892627Y-85163598D01*
X134952155Y-85169999D01*
X134952172Y-85170000D01*
X136250000Y-85170000D01*
X136250000Y-83889064D01*
X136278316Y-83900793D01*
X136425147Y-83930000D01*
X136574853Y-83930000D01*
X136721684Y-83900793D01*
X136750000Y-83889064D01*
X136750000Y-85170000D01*
X138047828Y-85170000D01*
X138047844Y-85169999D01*
X138107372Y-85163598D01*
X138107379Y-85163596D01*
X138242086Y-85113354D01*
X138242093Y-85113350D01*
X138357187Y-85027190D01*
X138357190Y-85027187D01*
X138443350Y-84912093D01*
X138443354Y-84912086D01*
X138493596Y-84777379D01*
X138493598Y-84777372D01*
X138499999Y-84717844D01*
X138500000Y-84717827D01*
X138500000Y-83420000D01*
X137219064Y-83420000D01*
X137230793Y-83391684D01*
X137260000Y-83244853D01*
X137260000Y-83095147D01*
X137230793Y-82948316D01*
X137219064Y-82920000D01*
X138500000Y-82920000D01*
X138500000Y-82128711D01*
X143899500Y-82128711D01*
X143899500Y-82371288D01*
X143928616Y-82592455D01*
X143931162Y-82611789D01*
X143954221Y-82697847D01*
X143993947Y-82846104D01*
X144017156Y-82902135D01*
X144086776Y-83070212D01*
X144208064Y-83280289D01*
X144208066Y-83280292D01*
X144208067Y-83280293D01*
X144355733Y-83472736D01*
X144355739Y-83472743D01*
X144527256Y-83644260D01*
X144527262Y-83644265D01*
X144719711Y-83791936D01*
X144929788Y-83913224D01*
X145153900Y-84006054D01*
X145388211Y-84068838D01*
X145568586Y-84092584D01*
X145628711Y-84100500D01*
X145628712Y-84100500D01*
X145871289Y-84100500D01*
X145919388Y-84094167D01*
X146111789Y-84068838D01*
X146346100Y-84006054D01*
X146570212Y-83913224D01*
X146780289Y-83791936D01*
X146972738Y-83644265D01*
X147144265Y-83472738D01*
X147291936Y-83280289D01*
X147413224Y-83070212D01*
X147506054Y-82846100D01*
X147568838Y-82611789D01*
X147600500Y-82371288D01*
X147600500Y-82128712D01*
X147568838Y-81888211D01*
X147506054Y-81653900D01*
X147413224Y-81429788D01*
X147291936Y-81219711D01*
X147144265Y-81027262D01*
X147144260Y-81027256D01*
X146972743Y-80855739D01*
X146972736Y-80855733D01*
X146780293Y-80708067D01*
X146780292Y-80708066D01*
X146780289Y-80708064D01*
X146570212Y-80586776D01*
X146570205Y-80586773D01*
X146346104Y-80493947D01*
X146111785Y-80431161D01*
X145871289Y-80399500D01*
X145871288Y-80399500D01*
X145628712Y-80399500D01*
X145628711Y-80399500D01*
X145388214Y-80431161D01*
X145153895Y-80493947D01*
X144929794Y-80586773D01*
X144929785Y-80586777D01*
X144719706Y-80708067D01*
X144527263Y-80855733D01*
X144527256Y-80855739D01*
X144355739Y-81027256D01*
X144355733Y-81027263D01*
X144208067Y-81219706D01*
X144086777Y-81429785D01*
X144086773Y-81429794D01*
X143993947Y-81653895D01*
X143931161Y-81888214D01*
X143899500Y-82128711D01*
X138500000Y-82128711D01*
X138500000Y-81622172D01*
X138499999Y-81622155D01*
X138493598Y-81562627D01*
X138493596Y-81562620D01*
X138443354Y-81427913D01*
X138443350Y-81427906D01*
X138357190Y-81312812D01*
X138357187Y-81312809D01*
X138242093Y-81226649D01*
X138242086Y-81226645D01*
X138107379Y-81176403D01*
X138107372Y-81176401D01*
X138047844Y-81170000D01*
X136750000Y-81170000D01*
X136750000Y-82450935D01*
X136721684Y-82439207D01*
X136574853Y-82410000D01*
X136425147Y-82410000D01*
X136278316Y-82439207D01*
X136250000Y-82450935D01*
X136250000Y-81170000D01*
X134952155Y-81170000D01*
X134892627Y-81176401D01*
X134892620Y-81176403D01*
X134757913Y-81226645D01*
X134757906Y-81226649D01*
X134642812Y-81312809D01*
X134642809Y-81312812D01*
X134556649Y-81427906D01*
X134556645Y-81427913D01*
X134506403Y-81562620D01*
X134506401Y-81562627D01*
X134500000Y-81622155D01*
X128294279Y-81622155D01*
X128304966Y-81500002D01*
X128304966Y-81499997D01*
X128285141Y-81273400D01*
X128285139Y-81273389D01*
X128226269Y-81053682D01*
X128226264Y-81053668D01*
X128130136Y-80847521D01*
X128130132Y-80847513D01*
X128079025Y-80774526D01*
X127400000Y-81453551D01*
X127400000Y-81447339D01*
X127372741Y-81345606D01*
X127320080Y-81254394D01*
X127245606Y-81179920D01*
X127154394Y-81127259D01*
X127052661Y-81100000D01*
X127046448Y-81100000D01*
X127725472Y-80420974D01*
X127652478Y-80369863D01*
X127446331Y-80273735D01*
X127446317Y-80273730D01*
X127226610Y-80214860D01*
X127226599Y-80214858D01*
X127000002Y-80195034D01*
X126999998Y-80195034D01*
X126773400Y-80214858D01*
X126773389Y-80214860D01*
X126553682Y-80273730D01*
X126553673Y-80273734D01*
X126347516Y-80369866D01*
X126347512Y-80369868D01*
X126274526Y-80420973D01*
X126274526Y-80420974D01*
X126953553Y-81100000D01*
X126947339Y-81100000D01*
X126845606Y-81127259D01*
X126754394Y-81179920D01*
X126679920Y-81254394D01*
X126627259Y-81345606D01*
X126600000Y-81447339D01*
X126600000Y-81453552D01*
X125920974Y-80774526D01*
X125920973Y-80774526D01*
X125869868Y-80847512D01*
X125869866Y-80847516D01*
X125773734Y-81053673D01*
X125773730Y-81053682D01*
X125714860Y-81273389D01*
X125714858Y-81273400D01*
X125695034Y-81499997D01*
X115028873Y-81499997D01*
X115035139Y-81476610D01*
X115035141Y-81476599D01*
X115054966Y-81250002D01*
X115054966Y-81249997D01*
X115035141Y-81023400D01*
X115035139Y-81023389D01*
X114976269Y-80803682D01*
X114976264Y-80803668D01*
X114880136Y-80597521D01*
X114880132Y-80597513D01*
X114829025Y-80524526D01*
X114150000Y-81203551D01*
X114150000Y-81197339D01*
X114122741Y-81095606D01*
X114070080Y-81004394D01*
X113995606Y-80929920D01*
X113904394Y-80877259D01*
X113802661Y-80850000D01*
X113796448Y-80850000D01*
X114475472Y-80170974D01*
X114402478Y-80119863D01*
X114196331Y-80023735D01*
X114196317Y-80023730D01*
X113976610Y-79964860D01*
X113976599Y-79964858D01*
X113750002Y-79945034D01*
X113749998Y-79945034D01*
X113523400Y-79964858D01*
X113523389Y-79964860D01*
X113303682Y-80023730D01*
X113303673Y-80023734D01*
X113097516Y-80119866D01*
X113097512Y-80119868D01*
X113024526Y-80170973D01*
X113024526Y-80170974D01*
X113703553Y-80850000D01*
X113697339Y-80850000D01*
X113595606Y-80877259D01*
X113504394Y-80929920D01*
X113429920Y-81004394D01*
X113377259Y-81095606D01*
X113350000Y-81197339D01*
X113350000Y-81203552D01*
X112670974Y-80524526D01*
X112670973Y-80524526D01*
X112619868Y-80597512D01*
X112619866Y-80597516D01*
X112523734Y-80803673D01*
X112523730Y-80803682D01*
X112464860Y-81023389D01*
X112464858Y-81023400D01*
X112445034Y-81249997D01*
X106309422Y-81249997D01*
X106291936Y-81219711D01*
X106144265Y-81027262D01*
X106144260Y-81027256D01*
X105972743Y-80855739D01*
X105972736Y-80855733D01*
X105780293Y-80708067D01*
X105780292Y-80708066D01*
X105780289Y-80708064D01*
X105570212Y-80586776D01*
X105570205Y-80586773D01*
X105346104Y-80493947D01*
X105111785Y-80431161D01*
X104871289Y-80399500D01*
X104871288Y-80399500D01*
X104628712Y-80399500D01*
X104628711Y-80399500D01*
X104388214Y-80431161D01*
X104153895Y-80493947D01*
X103929794Y-80586773D01*
X103929785Y-80586777D01*
X103719706Y-80708067D01*
X103527263Y-80855733D01*
X103527256Y-80855739D01*
X103355739Y-81027256D01*
X103355733Y-81027263D01*
X103208067Y-81219706D01*
X103086777Y-81429785D01*
X103086773Y-81429794D01*
X102993947Y-81653895D01*
X102931161Y-81888214D01*
X102899500Y-82128711D01*
X100750500Y-82128711D01*
X100750500Y-78374500D01*
X100770185Y-78307461D01*
X100822989Y-78261706D01*
X100874500Y-78250500D01*
X149625500Y-78250500D01*
X149692539Y-78270185D01*
G37*
%TD.AperFunction*%
%TD*%
M02*
