M48
; DRILL file {KiCad 8.0.5} date 2024-11-27T14:30:22+0100
; FORMAT={-:-/ absolute / metric / decimal}
; #@! TF.CreationDate,2024-11-27T14:30:22+01:00
; #@! TF.GenerationSoftware,Kicad,Pcbnew,8.0.5
; #@! TF.FileFunction,Plated,1,2,PTH
FMAT,2
METRIC
; #@! TA.AperFunction,Plated,PTH,ComponentDrill
T1C0.800
; #@! TA.AperFunction,Plated,PTH,ComponentDrill
T2C1.000
; #@! TA.AperFunction,Plated,PTH,ComponentDrill
T3C1.100
; #@! TA.AperFunction,Plated,PTH,ComponentDrill
T4C1.520
%
G90
G05
T1
X107.84Y-98.75
X113.75Y-81.25
X113.75Y-83.75
X118.0Y-98.75
X126.5Y-93.25
X127.0Y-81.5
X127.0Y-84.0
X129.0Y-93.25
X134.25Y-101.75
X135.5Y-93.5
X135.5Y-96.0
X136.75Y-101.75
T2
X104.0Y-98.75
X127.75Y-89.25
T3
X105.42Y-104.25
X107.96Y-104.25
X110.5Y-104.25
X115.84Y-103.0
X126.0Y-103.0
X141.805Y-96.46
X141.805Y-99.0
X141.805Y-101.54
T4
X105.21Y-91.25
X110.29Y-91.25
X118.71Y-111.25
X123.79Y-111.25
X132.21Y-111.25
X136.5Y-83.17
X136.5Y-88.25
X137.29Y-111.25
M30
