M48
; DRILL file {KiCad 8.0.5} date 2024-11-27T13:49:18+0100
; FORMAT={-:-/ absolute / metric / decimal}
; #@! TF.CreationDate,2024-11-27T13:49:18+01:00
; #@! TF.GenerationSoftware,Kicad,Pcbnew,8.0.5
; #@! TF.FileFunction,Plated,1,2,PTH
FMAT,2
METRIC
; #@! TA.AperFunction,Plated,PTH,ComponentDrill
T1C0.700
; #@! TA.AperFunction,Plated,PTH,ComponentDrill
T2C0.800
; #@! TA.AperFunction,Plated,PTH,ComponentDrill
T3C0.900
; #@! TA.AperFunction,Plated,PTH,ComponentDrill
T4C1.000
; #@! TA.AperFunction,Plated,PTH,ComponentDrill
T5C1.520
; #@! TA.AperFunction,Plated,PTH,ComponentDrill
T6C1.550
%
G90
G05
T1
X133.76Y-134.25
X136.3Y-134.25
T2
X84.25Y-113.25
X84.5Y-130.5
X86.25Y-95.75
X86.75Y-113.25
X87.0Y-130.5
X88.71Y-117.88
X88.71Y-125.5
X88.75Y-95.75
X89.67Y-88.75
X91.25Y-117.88
X91.25Y-125.5
X93.79Y-117.88
X93.79Y-125.5
X96.33Y-117.88
X96.33Y-125.5
X98.87Y-117.88
X98.87Y-125.5
X99.83Y-88.75
X101.41Y-117.88
X101.41Y-125.5
X103.95Y-117.88
X103.95Y-125.5
X106.49Y-117.88
X106.49Y-125.5
X110.75Y-135.0
X110.75Y-137.5
X124.69Y-90.5
X126.25Y-130.0
X126.25Y-138.795
X126.25Y-141.295
X132.31Y-90.5
X132.92Y-138.75
X136.41Y-130.0
X141.75Y-81.5
X141.75Y-84.0
X143.08Y-138.75
X143.17Y-114.88
X143.17Y-122.5
X143.17Y-133.5
X145.71Y-114.88
X145.71Y-122.5
X148.25Y-114.88
X148.25Y-122.5
X148.25Y-127.25
X150.75Y-127.25
X150.79Y-114.88
X150.79Y-122.5
X153.33Y-133.5
X154.5Y-85.705
X154.5Y-88.205
X155.75Y-114.75
X155.75Y-117.25
X160.0Y-114.67
X160.0Y-124.83
X163.0Y-101.75
X163.045Y-110.5
X165.5Y-101.75
X165.545Y-110.5
T3
X103.21Y-80.75
X105.75Y-80.75
T4
X89.5Y-103.445
X89.5Y-105.985
X89.5Y-108.525
X89.75Y-134.975
X89.75Y-137.515
X89.75Y-140.055
X93.5Y-103.445
X93.5Y-105.985
X93.5Y-108.525
X93.75Y-134.975
X93.75Y-137.515
X93.75Y-140.055
X97.5Y-103.445
X97.5Y-105.985
X97.5Y-108.525
X97.75Y-134.975
X97.75Y-137.515
X97.75Y-140.055
X101.5Y-103.445
X101.5Y-105.985
X101.5Y-108.525
X101.625Y-134.935
X101.625Y-137.475
X101.625Y-140.015
X111.49Y-91.95
X111.49Y-94.49
X111.49Y-97.03
X111.49Y-99.57
X111.49Y-102.11
X111.49Y-104.65
X116.75Y-134.92
X116.75Y-137.46
X116.75Y-140.0
X120.89Y-84.2
X120.89Y-86.74
X120.89Y-89.28
X120.89Y-91.82
X120.89Y-94.36
X120.89Y-96.9
X120.89Y-99.44
X120.89Y-101.98
X120.89Y-104.52
X120.89Y-107.06
X120.89Y-109.6
X120.89Y-112.14
X120.89Y-114.68
X120.89Y-117.22
X120.89Y-119.76
X136.13Y-84.2
X136.13Y-86.74
X136.13Y-89.28
X136.13Y-91.82
X136.13Y-94.36
X136.13Y-96.9
X136.13Y-99.44
X136.13Y-101.98
X136.13Y-104.52
X136.13Y-107.06
X136.13Y-109.6
X136.13Y-112.14
X136.13Y-114.68
X136.13Y-117.22
X136.13Y-119.76
X142.75Y-88.25
X142.75Y-90.79
X147.5Y-85.695
X147.5Y-88.235
X147.5Y-90.775
X151.92Y-105.5
X151.96Y-94.5
X151.96Y-98.5
X154.46Y-105.5
X154.5Y-94.5
X154.5Y-98.5
X157.0Y-105.5
X157.04Y-94.5
X157.04Y-98.5
X159.54Y-105.5
X159.58Y-94.5
X159.58Y-98.5
T5
X78.25Y-88.5
X78.25Y-93.58
T6
X86.0Y-80.25
X90.8Y-80.25
X95.6Y-80.25
M30
