M48
; DRILL file {KiCad 8.0.5} date 2024-12-16T15:20:51+0100
; FORMAT={-:-/ absolute / metric / decimal}
; #@! TF.CreationDate,2024-12-16T15:20:51+01:00
; #@! TF.GenerationSoftware,Kicad,Pcbnew,8.0.5
; #@! TF.FileFunction,Plated,1,2,PTH
FMAT,2
METRIC
; #@! TA.AperFunction,Plated,PTH,ComponentDrill
T1C0.700
; #@! TA.AperFunction,Plated,PTH,ComponentDrill
T2C0.800
; #@! TA.AperFunction,Plated,PTH,ComponentDrill
T3C0.900
; #@! TA.AperFunction,Plated,PTH,ViaDrill
T4C1.000
; #@! TA.AperFunction,Plated,PTH,ComponentDrill
T5C1.000
; #@! TA.AperFunction,Plated,PTH,ComponentDrill
T6C1.520
; #@! TA.AperFunction,Plated,PTH,ComponentDrill
T7C1.850
%
G90
G05
T1
X128.68Y-132.0
X131.22Y-132.0
T2
X83.25Y-130.5
X83.75Y-113.5
X85.75Y-130.5
X86.25Y-113.5
X86.5Y-94.0
X88.71Y-117.88
X88.71Y-125.5
X89.0Y-94.0
X91.25Y-117.88
X91.25Y-125.5
X92.42Y-88.25
X93.79Y-117.88
X93.79Y-125.5
X96.33Y-117.88
X96.33Y-125.5
X98.87Y-117.88
X98.87Y-125.5
X101.41Y-117.88
X101.41Y-125.5
X102.58Y-88.25
X103.95Y-117.88
X103.95Y-125.5
X106.49Y-117.88
X106.49Y-125.5
X110.75Y-135.0
X110.75Y-137.5
X121.67Y-138.0
X123.0Y-130.25
X123.0Y-132.75
X124.69Y-90.5
X131.83Y-138.0
X132.31Y-90.5
X135.17Y-138.0
X135.5Y-128.0
X135.5Y-130.5
X136.92Y-133.5
X141.0Y-126.5
X141.68Y-113.68
X141.68Y-116.22
X141.68Y-118.76
X141.68Y-121.3
X141.75Y-81.705
X141.75Y-84.205
X143.5Y-126.5
X145.33Y-138.0
X147.08Y-133.5
X149.3Y-113.68
X149.3Y-116.22
X149.3Y-118.76
X149.3Y-121.3
X152.75Y-112.5
X152.75Y-117.5
X152.92Y-131.5
X154.5Y-85.705
X154.5Y-88.205
X156.75Y-113.17
X156.75Y-123.33
X160.5Y-100.5
X160.545Y-106.5
X163.0Y-100.5
X163.045Y-106.5
X163.08Y-131.5
T3
X103.21Y-80.75
X105.75Y-80.75
T4
X80.75Y-121.75
X85.5Y-121.75
X105.75Y-134.5
X105.75Y-140.25
X114.0Y-129.75
X119.5Y-129.75
X124.5Y-86.75
X132.75Y-86.75
X160.0Y-123.25
X165.75Y-123.25
T5
X89.5Y-103.445
X89.5Y-105.985
X89.5Y-108.525
X89.75Y-134.975
X89.75Y-137.515
X89.75Y-140.055
X93.5Y-103.445
X93.5Y-105.985
X93.5Y-108.525
X93.75Y-134.975
X93.75Y-137.515
X93.75Y-140.055
X97.5Y-103.445
X97.5Y-105.985
X97.5Y-108.525
X97.75Y-134.975
X97.75Y-137.515
X97.75Y-140.055
X101.5Y-103.445
X101.5Y-105.985
X101.5Y-108.525
X101.625Y-134.935
X101.625Y-137.475
X101.625Y-140.015
X107.75Y-91.95
X107.75Y-94.49
X107.75Y-97.03
X107.75Y-99.57
X107.75Y-102.11
X107.75Y-104.65
X107.75Y-108.5
X115.5Y-86.5
X115.5Y-89.04
X115.5Y-91.58
X115.5Y-94.12
X115.5Y-96.66
X116.75Y-134.92
X116.75Y-137.46
X116.75Y-140.0
X120.89Y-84.2
X120.89Y-86.74
X120.89Y-89.28
X120.89Y-91.82
X120.89Y-94.36
X120.89Y-96.9
X120.89Y-99.44
X120.89Y-101.98
X120.89Y-104.52
X120.89Y-107.06
X120.89Y-109.6
X120.89Y-112.14
X120.89Y-114.68
X120.89Y-117.22
X120.89Y-119.76
X136.13Y-84.2
X136.13Y-86.74
X136.13Y-89.28
X136.13Y-91.82
X136.13Y-94.36
X136.13Y-96.9
X136.13Y-99.44
X136.13Y-101.98
X136.13Y-104.52
X136.13Y-107.06
X136.13Y-109.6
X136.13Y-112.14
X136.13Y-114.68
X136.13Y-117.22
X136.13Y-119.76
X142.75Y-88.25
X142.75Y-90.79
X147.5Y-85.695
X147.5Y-88.235
X147.5Y-90.775
X148.88Y-97.25
X148.88Y-102.25
X151.42Y-97.25
X151.42Y-102.25
X153.96Y-97.25
X153.96Y-102.25
X156.5Y-97.25
X156.5Y-102.25
T6
X76.17Y-90.25
X81.25Y-90.25
T7
X86.2Y-80.25
X90.9Y-80.25
X95.6Y-80.25
M30
